<?xml version="1.0" standalone="no"?>
<!DOCTYPE svg PUBLIC "-//W3C//DTD SVG 20010904//EN"
 "http://www.w3.org/TR/2001/REC-SVG-20010904/DTD/svg10.dtd">
<svg version="1.0" xmlns="http://www.w3.org/2000/svg"
 width="256.000000pt" height="256.000000pt" viewBox="0 0 256.000000 256.000000"
 preserveAspectRatio="xMidYMid meet">

<g transform="translate(0.000000,256.000000) scale(0.100000,-0.100000)"
fill="#000000" stroke="none">
<path d="M1220 2131 c0 -5 4 -21 10 -35 9 -25 14 -26 79 -26 74 0 91 -11 91
-57 0 -27 -133 -70 -242 -78 l-88 -7 0 -40 0 -41 83 6 c45 3 96 11 114 18 18
7 35 11 38 7 3 -3 1 -25 -4 -49 -28 -126 -31 -146 -26 -161 9 -22 114 -32 136
-13 8 8 21 15 28 15 17 0 100 79 117 112 17 33 9 74 -16 88 -24 13 -110 13
-110 0 0 -5 -13 -16 -30 -25 -30 -15 -30 -15 -30 10 0 44 17 62 100 105 57 28
91 40 116 38 55 -4 75 46 29 76 -33 22 -48 20 -83 -9 -40 -33 -56 -32 -73 8
-21 47 -68 67 -161 67 -43 0 -78 -4 -78 -9z m240 -364 c0 -22 -46 -67 -70 -67
-16 0 -12 8 22 51 36 45 48 49 48 16z"/>
<path d="M801 1772 c-22 -22 -31 -40 -31 -64 0 -18 -5 -51 -11 -73 -7 -22 -15
-78 -19 -125 -17 -183 -19 -188 -64 -224 -22 -18 -65 -41 -93 -50 -83 -28
-168 -107 -155 -146 14 -42 25 -42 71 3 25 25 81 64 124 87 75 40 80 41 98 24
10 -9 19 -24 19 -32 0 -8 16 -32 35 -53 19 -22 35 -43 35 -48 0 -5 -18 -33
-40 -62 -39 -52 -51 -89 -29 -89 18 0 87 53 100 78 16 29 25 28 65 -7 37 -33
125 -56 168 -45 38 9 61 46 46 73 -12 24 -22 25 -65 10 -26 -10 -39 -8 -77 9
-26 11 -54 31 -62 45 -15 22 -15 27 -1 61 8 20 22 66 31 104 22 95 70 169 138
212 31 19 56 38 56 43 0 13 -40 7 -79 -13 l-39 -19 -6 37 c-3 20 -6 56 -6 79
0 51 -8 73 -26 73 -27 0 -44 -43 -44 -114 0 -87 -27 -146 -76 -170 -53 -25
-64 -21 -64 22 0 20 7 75 16 122 9 47 20 125 26 173 13 108 4 125 -41 79z m69
-492 c0 -30 -23 -110 -32 -110 -9 0 -38 54 -38 73 0 18 37 57 55 57 8 0 15 -9
15 -20z"/>
<path d="M1203 1658 c-6 -7 -13 -33 -17 -58 -4 -25 -12 -74 -18 -110 -6 -36
-12 -130 -13 -210 -2 -94 -7 -146 -14 -148 -16 -5 -14 -37 4 -52 22 -18 67 -5
190 55 61 29 139 65 175 80 36 15 70 31 76 36 12 10 102 39 121 39 6 0 18 -7
26 -15 11 -10 25 -13 47 -9 30 6 31 8 28 53 l-3 46 -68 -3 c-66 -3 -152 -29
-236 -71 -118 -59 -140 -67 -155 -59 -10 6 -29 2 -55 -12 -22 -11 -43 -20 -46
-20 -3 0 -5 19 -5 41 0 67 50 144 114 175 66 32 107 56 124 72 7 6 21 12 29
12 9 0 35 11 57 24 40 23 126 44 126 31 0 -16 -82 -104 -122 -130 -24 -16 -60
-44 -80 -62 -21 -18 -55 -44 -78 -58 -39 -25 -52 -45 -29 -45 7 0 37 17 68 37
31 21 97 60 147 88 62 34 108 68 142 106 47 51 52 61 52 103 l0 46 -64 0 c-79
0 -195 -39 -281 -94 -126 -80 -190 -114 -199 -105 -6 5 -5 45 3 103 8 53 11
102 8 111 -8 18 -41 20 -54 3z"/>
<path d="M1477 1132 c-9 -10 -14 -22 -10 -25 3 -4 10 -52 14 -107 6 -78 5
-110 -7 -142 -8 -23 -14 -77 -14 -125 0 -52 -6 -97 -15 -120 l-15 -36 -70 7
-70 7 0 -25 0 -26 113 0 c113 0 114 0 126 26 7 15 14 111 18 242 3 119 10 225
15 236 8 14 3 28 -18 59 -35 49 -45 53 -67 29z"/>
</g>
</svg>
